<?xml version="1.0" encoding="UTF-8"?>
<svg width="50px" height="50px" viewBox="0 0 50 50" version="1.1" xmlns="http://www.w3.org/2000/svg" xmlns:xlink="http://www.w3.org/1999/xlink">
    <title>check</title>
    <defs>
        <linearGradient x1="66.0759824%" y1="100%" x2="6.0211934%" y2="3.36719424%" id="linearGradient-1">
            <stop stop-color="#2FAD66" offset="0%"></stop>
            <stop stop-color="#9DE686" offset="100%"></stop>
        </linearGradient>
    </defs>
    <g id="Layouts" stroke="none" stroke-width="1" fill="none" fill-rule="evenodd">
        <g id="Login-Copy" transform="translate(-610.000000, -553.000000)">
            <g id="login-form" transform="translate(60.000000, 523.000000)">
                <g id="check" transform="translate(550.000000, 30.000000)">
                    <path d="M14.0303757,0.53633644 C17.7092646,0.178778813 21.3658061,-7.10542736e-15 25,-7.10542736e-15 C28.6368624,-7.10542736e-15 32.2961049,0.179041347 35.9777273,0.537124041 L35.9777271,0.537126856 C43.1093808,1.23076718 48.7546366,6.87147891 49.4540195,14.0025718 C49.8180065,17.7138797 50,21.3796891 50,25 C50,28.6228964 49.8177465,32.2913562 49.4532395,36.0053793 L49.4532391,36.0053793 C48.752994,43.1402944 43.1017945,48.7822928 35.9657479,49.4709108 C32.3104987,49.8236369 28.6552494,50 25,50 C21.3474582,50 17.6949162,49.823898 14.0423741,49.471694 L14.0423739,49.4716969 C6.90989685,48.7839329 1.25986597,43.1475338 0.554874799,36.0167389 C0.184958266,32.2751333 -1.3500312e-13,28.602887 -1.3500312e-13,25 C-1.3500312e-13,21.3996578 0.18469711,17.7300541 0.554091329,13.9911891 L0.554093011,13.9911892 C1.25822592,6.86422884 6.90230378,1.22912618 14.0303757,0.53633644 Z" id="mask" fill="url(#linearGradient-1)"></path>
                    <polyline id="Shape" stroke="#FFFFFF" stroke-width="2" stroke-linecap="round" stroke-linejoin="round" points="33 21 22.6875 31 18 26.4545455"></polyline>
                </g>
            </g>
        </g>
    </g>
</svg>