<?xml version="1.0" encoding="UTF-8"?>
<svg width="33px" height="18px" viewBox="0 0 33 18" version="1.1" xmlns="http://www.w3.org/2000/svg" xmlns:xlink="http://www.w3.org/1999/xlink">
    <title>Path Copy 2</title>
    <g id="Web-Facebook" stroke="none" stroke-width="1" fill="none" fill-rule="evenodd">
        <g id="Events" transform="translate(-1220.000000, -676.000000)" fill="#9F9F9F">
            <path d="M1244.45424,686.421828 L1231.19988,700.42017 C1230.46787,701.193277 1229.28103,701.193277 1228.54901,700.42017 C1227.817,699.647063 1227.817,698.393608 1228.54901,697.620501 L1240.49695,684.999649 L1228.54901,672.379499 C1227.8733,671.665861 1227.82133,670.542934 1228.39308,669.766329 L1228.54901,669.57983 C1229.22472,668.866193 1230.28797,668.811298 1231.0233,669.415145 L1231.19988,669.57983 L1244.45424,683.578172 C1244.79209,683.934991 1244.97401,684.394132 1245,684.861144 L1245,685.138856 C1244.97401,685.605868 1244.79209,686.065009 1244.45424,686.421828 Z" id="Path-Copy-2" transform="translate(1236.500000, 685.000000) rotate(-270.000000) translate(-1236.500000, -685.000000) "></path>
        </g>
    </g>
</svg>