<?xml version="1.0" encoding="UTF-8"?>
<svg width="44px" height="42px" viewBox="0 0 44 42" version="1.1" xmlns="http://www.w3.org/2000/svg" xmlns:xlink="http://www.w3.org/1999/xlink">
    <title>Shape</title>
    <g id="Layouts" stroke="none" stroke-width="1" fill="none" fill-rule="evenodd">
        <g id="10" transform="translate(-453.000000, -936.000000)" fill="#797979" fill-rule="nonzero">
            <path d="M464.920567,978 C464.546099,978 464.10922,977.939481 463.734752,977.757925 C462.73617,977.334294 462.112057,976.365994 462.112057,975.276657 L462.112057,969.043228 C456.869504,968.014409 453,963.414986 453,958.149856 L453,947.135447 C453,941.023055 458.11773,936 464.483688,936 L485.516312,936 C491.819858,936 497,940.962536 497,947.135447 L497,958.210375 C497,964.322767 491.88227,969.345821 485.516312,969.345821 L476.841135,969.345821 C476.529078,969.345821 476.15461,969.466859 475.904965,969.648415 L466.730496,977.334294 C466.231206,977.818444 465.607092,978 464.920567,978 Z M465.543046,941 C461.377483,941 458,944.168654 458,948.076661 L458,957.741056 C458,961.279387 460.81457,964.289608 464.529801,964.712095 C465.486755,964.817717 466.218543,965.609881 466.218543,966.507666 L466.218543,972 L473.986755,965.662692 C474.718543,965.081772 475.675497,964.712095 476.63245,964.712095 L484.456954,964.712095 C488.622517,964.712095 492,961.543441 492,957.635434 L492,948.076661 C492,944.168654 488.622517,941 484.456954,941 L465.543046,941 Z" id="Shape"></path>
        </g>
    </g>
</svg>