<?xml version="1.0" encoding="UTF-8"?>
<svg width="50px" height="50px" viewBox="0 0 50 50" version="1.1" xmlns="http://www.w3.org/2000/svg" xmlns:xlink="http://www.w3.org/1999/xlink">
    <title>check copy</title>
    <defs>
        <linearGradient x1="66.0759824%" y1="100%" x2="6.0211934%" y2="3.36719424%" id="linearGradient-1">
            <stop stop-color="#AD2F2F" offset="0%"></stop>
            <stop stop-color="#E68686" offset="100%"></stop>
        </linearGradient>
    </defs>
    <g id="Layouts" stroke="none" stroke-width="1" fill="none" fill-rule="evenodd">
        <g id="Login-Copy" transform="translate(-534.000000, -553.000000)">
            <g id="login-form" transform="translate(60.000000, 523.000000)">
                <g id="check-copy" transform="translate(474.000000, 30.000000)">
                    <path d="M14.0303757,0.53633644 C17.7092646,0.178778813 21.3658061,0 25,0 C28.6368624,0 32.2961049,0.179041347 35.9777273,0.537124041 L35.9777271,0.537126856 C43.1093808,1.23076718 48.7546366,6.87147891 49.4540195,14.0025718 C49.8180065,17.7138797 50,21.3796891 50,25 C50,28.6228964 49.8177465,32.2913562 49.4532395,36.0053793 L49.4532391,36.0053793 C48.752994,43.1402944 43.1017945,48.7822928 35.9657479,49.4709108 C32.3104987,49.8236369 28.6552494,50 25,50 C21.3474582,50 17.6949162,49.823898 14.0423741,49.471694 L14.0423739,49.4716969 C6.90989685,48.7839329 1.25986597,43.1475338 0.554874799,36.0167389 C0.184958266,32.2751333 0,28.602887 0,25 C0,21.3996578 0.18469711,17.7300541 0.554091329,13.9911891 L0.554093011,13.9911892 C1.25822592,6.86422884 6.90230378,1.22912618 14.0303757,0.53633644 Z" id="mask" fill="url(#linearGradient-1)"></path>
                    <line x1="33" y1="17.5" x2="17" y2="33.5" id="Shape" stroke="#FFFFFF" stroke-width="2" stroke-linecap="round" stroke-linejoin="round"></line>
                    <line x1="33" y1="17.5" x2="17" y2="33.5" id="Shape-Copy" stroke="#FFFFFF" stroke-width="2" stroke-linecap="round" stroke-linejoin="round" transform="translate(25.000000, 25.500000) scale(-1, 1) translate(-25.000000, -25.500000) "></line>
                </g>
            </g>
        </g>
    </g>
</svg>