<?xml version="1.0" encoding="UTF-8"?>
<svg width="43px" height="29px" viewBox="0 0 43 29" version="1.1" xmlns="http://www.w3.org/2000/svg" xmlns:xlink="http://www.w3.org/1999/xlink">
    <title>Shape</title>
    <g id="Layouts" stroke="none" stroke-width="1" fill="none" fill-rule="evenodd" opacity="0.661551339">
        <g id="8" transform="translate(-112.000000, -1382.000000)" fill="#424242" fill-rule="nonzero">
            <path d="M133.5,1382 C143.282456,1382 151.618611,1388.01261 155,1396.5 C151.618611,1404.9873 143.282456,1411 133.5,1411 C123.727256,1411 115.381389,1404.9873 112,1396.5 C115.381389,1388.01261 123.727256,1382 133.5,1382 Z M133.5,1386.8333 C128.105462,1386.8333 123.727256,1391.16391 123.727256,1396.49991 C123.727256,1401.83591 128.105462,1406.16661 133.5,1406.16661 C138.894538,1406.16661 143.272744,1401.836 143.272744,1396.5 C143.272744,1391.164 138.894538,1386.8333 133.5,1386.8333 Z M133.5,1390 C137.085766,1390 140,1392.91413 140,1396.5 C140,1400.08587 137.085867,1403 133.5,1403 C129.914133,1403 127,1400.08587 127,1396.5 C127,1392.91413 129.914133,1390 133.5,1390 Z" id="Shape"></path>
        </g>
    </g>
</svg>