<?xml version="1.0" encoding="UTF-8"?>
<svg width="20px" height="16px" viewBox="0 0 20 16" version="1.1" xmlns="http://www.w3.org/2000/svg" xmlns:xlink="http://www.w3.org/1999/xlink">
    <title>Shape</title>
    <g id="Page-1" stroke="none" stroke-width="1" fill="none" fill-rule="evenodd">
        <path d="M14.6875,0 C16.1752344,0 17.5405469,0.55433164 18.5319141,1.56087296 C19.4786328,2.52205766 20,3.80004304 20,5.15941991 C20,6.86192796 19.1899609,8.79226259 17.7190625,10.5948056 C15.9911719,12.7123407 13.4115234,14.562849 10.2590234,15.9462608 C10.1773828,15.9820869 10.0887109,16 10,16 C9.91128906,16 9.82261719,15.9820869 9.74097656,15.9462608 C6.58847656,14.562849 4.00882812,12.7123407 2.2809375,10.5948056 C0.810039062,8.79226259 0,6.86192796 0,5.15941991 C0,3.80004304 0.521367188,2.52205766 1.46808594,1.56087296 C2.45945312,0.55433164 3.82476562,0 5.3125,0 C7.70714844,0 9.26679687,1.11196763 10,1.79652564 C10.7332031,1.11196763 12.2928125,0 14.6875,0 Z" id="Shape" fill="#646464" fill-rule="nonzero"></path>
    </g>
</svg>