<?xml version="1.0" encoding="UTF-8"?>
<svg width="183px" height="30px" viewBox="0 0 183 30" version="1.1" xmlns="http://www.w3.org/2000/svg" xmlns:xlink="http://www.w3.org/1999/xlink">
    <title>Rectangle</title>
    <defs>
        <path d="M15.6860438,-3.62376795e-12 L10.8389363,9.77918719 L1.75859327e-13,11.3475845 L7.84236288,18.9605459 L5.99248787,29.7083333 L15.6860438,24.633682 L25.3802587,29.7083333 L23.5297247,18.9605459 L31.3714286,11.3475845 L20.5331513,9.77918719 L15.6860438,-3.62376795e-12 Z M53.4360438,-3.62376795e-12 L58.2829476,9.77918719 L69.1214286,11.3475845 L61.2793952,18.9605459 L63.1298515,29.7083333 L53.4360438,24.6343382 L43.7428951,29.7083333 L45.5933514,18.9605459 L37.75,11.3475845 L48.5891399,9.77918719 L53.4360438,-3.62376795e-12 Z M91.1860438,-3.62376795e-12 L96.0331513,9.77918719 L106.871429,11.3475845 L99.0290657,18.9605459 L100.8796,29.7083333 L91.1860438,24.6343382 L81.4924879,29.7083333 L83.3430219,18.9605459 L75.5,11.3475845 L86.3389363,9.77918719 L91.1860438,-3.62376795e-12 Z M128.935714,-3.62376795e-12 L133.782061,9.77918719 L144.621429,11.3475845 L136.77923,18.9605459 L138.629726,29.7083333 L128.935714,24.6343382 L119.242362,29.7083333 L121.092857,18.9605459 L113.25,11.3475845 L124.08805,9.77918719 L128.935714,-3.62376795e-12 Z M166.685714,-3.62376795e-12 L171.532061,9.77918719 L182.371429,11.3475845 L174.52923,18.9605459 L176.379726,29.7083333 L166.685714,24.6343382 L156.992362,29.7083333 L158.842857,18.9605459 L151,11.3475845 L161.83805,9.77918719 L166.685714,-3.62376795e-12 Z" id="path-1"></path>
    </defs>
    <g id="Layouts" stroke="none" stroke-width="1" fill="none" fill-rule="evenodd">
        <g id="Rectangle">
            <mask id="mask-2" fill="white">
                <use xlink:href="#path-1"></use>
            </mask>
            <use id="Mask" fill="#A6A6A6" xlink:href="#path-1"></use>
            <rect id="Rectangle-Copy-18" fill="#AAAAAA" mask="url(#mask-2)" x="0" y="0" width="182" height="30"></rect>
            <rect fill="#D69000" mask="url(#mask-2)" x="0" y="0" width="182" height="30"></rect>
        </g>
    </g>
</svg>