<?xml version="1.0" encoding="UTF-8"?>
<svg width="32px" height="29px" viewBox="0 0 32 29" version="1.1" xmlns="http://www.w3.org/2000/svg" xmlns:xlink="http://www.w3.org/1999/xlink">
    <title>Shape</title>
    <g id="Layouts" stroke="none" stroke-width="1" fill="none" fill-rule="evenodd">
        <g id="10" transform="translate(-823.000000, -943.000000)" fill="#797979" fill-rule="nonzero">
            <path d="M824.634213,972 C824.548202,972 824.419185,972 824.333174,971.957129 C823.68809,971.828515 823.258034,971.356932 823.172022,970.713863 C823.043006,969.856439 823,968.999014 823,968.098719 C823,958.924277 829.794887,951.078844 838.869072,949.792707 L838.869072,944.862516 C838.869072,944.133706 839.299128,943.447766 840.030223,943.147668 C840.718313,942.847569 841.53542,943.019054 842.051487,943.533509 L853.921037,955.365966 C854.351093,955.794678 854.566121,956.309133 854.566121,956.90933 C854.566121,957.509527 854.351093,958.023982 853.921037,958.452694 L842.008482,970.285151 C841.492414,970.799606 840.675308,970.971091 839.987218,970.670992 C839.299128,970.370894 838.826066,969.727825 838.826066,968.956143 L838.826066,963.468627 C833.49337,963.811597 828.676741,966.72684 825.881376,971.271189 C825.623342,971.742773 825.150281,972 824.634213,972 Z" id="Shape"></path>
        </g>
    </g>
</svg>