<?xml version="1.0" encoding="UTF-8"?>
<svg width="40px" height="70px" viewBox="0 0 40 70" version="1.1" xmlns="http://www.w3.org/2000/svg" xmlns:xlink="http://www.w3.org/1999/xlink">
    <title>Shape</title>
    <g id="Layouts" stroke="none" stroke-width="1" fill="none" fill-rule="evenodd">
        <g id="10" transform="translate(-468.000000, -492.000000)" fill="#FFFFFF" fill-rule="nonzero">
            <path d="M470.269,527 L470.257833,527.009659 L507.228724,559.784982 L507.317092,559.873692 C507.643748,560.245408 507.648043,560.809124 507.308456,561.186562 C506.968869,561.564 506.404103,561.623226 505.995239,561.34288 L505.896491,561.265707 L468.333727,527.965125 L468.245359,527.876415 C468.057252,527.66236 467.976044,527.384637 468.0061,527.11555 L468.025807,527.000967 L470.269,527 Z M507.308623,492.812999 C507.64821,493.190437 507.643915,493.754152 507.317259,494.125869 L507.228891,494.214579 L470.258,526.989901 L470.269167,526.999561 L468.025974,526.998594 C467.95519,526.695573 468.030547,526.36778 468.245526,526.123146 L468.333893,526.034436 L505.896658,492.733854 C506.308579,492.368673 506.940737,492.404108 507.308623,492.812999 Z" id="Shape"></path>
        </g>
    </g>
</svg>