<?xml version="1.0" encoding="UTF-8"?>
<svg width="11px" height="41px" viewBox="0 0 11 41" version="1.1" xmlns="http://www.w3.org/2000/svg" xmlns:xlink="http://www.w3.org/1999/xlink">
    <title>Group 4</title>
    <g id="Layouts" stroke="none" stroke-width="1" fill="none" fill-rule="evenodd">
        <g id="Rewards" transform="translate(-378.000000, -272.000000)" fill="#1CCF25" fill-rule="nonzero">
            <g id="Group-4" transform="translate(378.000000, 272.000000)">
                <path d="M11,29 L11,24 L6,24 L6,29 L11,29 Z M5,29 L5,24 L0,24 L0,29 L5,29 Z M11,35 L11,30 L6,30 L6,35 L11,35 Z M5,41 L5,36 L0,36 L0,41 L5,41 Z" id=","></path>
                <path d="M11,11 L11,6 L6,6 L6,11 L11,11 Z M5,11 L5,6 L0,6 L0,11 L5,11 Z M11,17 L11,12 L6,12 L6,17 L11,17 Z M5,23 L5,18 L0,18 L0,23 L5,23 Z" id=",-copy" fill-opacity="0"></path>
                <polygon id=",-copy-2" fill-opacity="0" points="5 5 5 0 0 0 0 5"></polygon>
            </g>
        </g>
    </g>
</svg>