<?xml version="1.0" encoding="UTF-8"?>
<svg width="36px" height="41px" viewBox="0 0 36 41" version="1.1" xmlns="http://www.w3.org/2000/svg" xmlns:xlink="http://www.w3.org/1999/xlink">
    <title>1</title>
    <g id="Layouts" stroke="none" stroke-width="1" fill="none" fill-rule="evenodd">
        <g id="Rewards" transform="translate(-348.000000, -293.000000)" fill="#1CCF25" fill-rule="nonzero">
            <path d="M371.799223,298 L371.799223,293 L366.799223,293 L366.799223,298 L371.799223,298 Z M365.799223,298 L365.799223,293 L360.799223,293 L360.799223,298 L365.799223,298 Z M371.799223,304 L371.799223,299 L366.799223,299 L366.799223,304 L371.799223,304 Z M365.799223,304 L365.799223,299 L360.799223,299 L360.799223,304 L365.799223,304 Z M359.799223,304 L359.799223,299 L354.799223,299 L354.799223,304 L359.799223,304 Z M371.799223,310 L371.799223,305 L366.799223,305 L366.799223,310 L371.799223,310 Z M365.799223,310 L365.799223,305 L360.799223,305 L360.799223,310 L365.799223,310 Z M353.799223,310 L353.799223,305 L348.799223,305 L348.799223,310 L353.799223,310 Z M371.799223,316 L371.799223,311 L366.799223,311 L366.799223,316 L371.799223,316 Z M365.799223,316 L365.799223,311 L360.799223,311 L360.799223,316 L365.799223,316 Z M371.799223,322 L371.799223,317 L366.799223,317 L366.799223,322 L371.799223,322 Z M365.799223,322 L365.799223,317 L360.799223,317 L360.799223,322 L365.799223,322 Z M371.799223,328 L371.799223,323 L366.799223,323 L366.799223,328 L371.799223,328 Z M365.799223,328 L365.799223,323 L360.799223,323 L360.799223,328 L365.799223,328 Z M383.799223,334 L383.799223,329 L378.799223,329 L378.799223,334 L383.799223,334 Z M377.799223,334 L377.799223,329 L372.799223,329 L372.799223,334 L377.799223,334 Z M371.799223,334 L371.799223,329 L366.799223,329 L366.799223,334 L371.799223,334 Z M365.799223,334 L365.799223,329 L360.799223,329 L360.799223,334 L365.799223,334 Z M359.799223,334 L359.799223,329 L354.799223,329 L354.799223,334 L359.799223,334 Z M353.799223,334 L353.799223,329 L348.799223,329 L348.799223,334 L353.799223,334 Z" id="1"></path>
        </g>
    </g>
</svg>