<?xml version="1.0" encoding="UTF-8"?>
<svg width="42px" height="41px" viewBox="0 0 42 41" version="1.1" xmlns="http://www.w3.org/2000/svg" xmlns:xlink="http://www.w3.org/1999/xlink">
    <title>2</title>
    <g id="Layouts" stroke="none" stroke-width="1" fill="none" fill-rule="evenodd">
        <g id="Rewards" transform="translate(-345.000000, -300.000000)" fill="#1CCF25" fill-rule="nonzero">
            <path d="M356.799223,305 L356.799223,300 L351.799223,300 L351.799223,305 L356.799223,305 Z M380.799223,305 L380.799223,300 L375.799223,300 L375.799223,305 L380.799223,305 Z M374.799223,305 L374.799223,300 L369.799223,300 L369.799223,305 L374.799223,305 Z M368.799223,305 L368.799223,300 L363.799223,300 L363.799223,305 L368.799223,305 Z M362.799223,305 L362.799223,300 L357.799223,300 L357.799223,305 L362.799223,305 Z M350.799223,311 L350.799223,306 L345.799223,306 L345.799223,311 L350.799223,311 Z M386.799223,311 L386.799223,306 L381.799223,306 L381.799223,311 L386.799223,311 Z M380.799223,311 L380.799223,306 L375.799223,306 L375.799223,311 L380.799223,311 Z M356.799223,311 L356.799223,306 L351.799223,306 L351.799223,311 L356.799223,311 Z M386.799223,317 L386.799223,312 L381.799223,312 L381.799223,317 L386.799223,317 Z M380.799223,317 L380.799223,312 L375.799223,312 L375.799223,317 L380.799223,317 Z M380.799223,323 L380.799223,318 L375.799223,318 L375.799223,323 L380.799223,323 Z M362.799223,323 L362.799223,318 L357.799223,318 L357.799223,323 L362.799223,323 Z M356.799223,323 L356.799223,318 L351.799223,318 L351.799223,323 L356.799223,323 Z M374.799223,323 L374.799223,318 L369.799223,318 L369.799223,323 L374.799223,323 Z M368.799223,323 L368.799223,318 L363.799223,318 L363.799223,323 L368.799223,323 Z M356.799223,329 L356.799223,324 L351.799223,324 L351.799223,329 L356.799223,329 Z M350.799223,329 L350.799223,324 L345.799223,324 L345.799223,329 L350.799223,329 Z M356.799223,335 L356.799223,330 L351.799223,330 L351.799223,335 L356.799223,335 Z M350.799223,335 L350.799223,330 L345.799223,330 L345.799223,335 L350.799223,335 Z M350.799223,341 L350.799223,336 L345.799223,336 L345.799223,341 L350.799223,341 Z M386.799223,341 L386.799223,336 L381.799223,336 L381.799223,341 L386.799223,341 Z M380.799223,341 L380.799223,336 L375.799223,336 L375.799223,341 L380.799223,341 Z M374.799223,341 L374.799223,336 L369.799223,336 L369.799223,341 L374.799223,341 Z M368.799223,341 L368.799223,336 L363.799223,336 L363.799223,341 L368.799223,341 Z M362.799223,341 L362.799223,336 L357.799223,336 L357.799223,341 L362.799223,341 Z M356.799223,341 L356.799223,336 L351.799223,336 L351.799223,341 L356.799223,341 Z" id="2"></path>
        </g>
    </g>
</svg>