<?xml version="1.0" encoding="UTF-8"?>
<svg width="42px" height="41px" viewBox="0 0 42 41" version="1.1" xmlns="http://www.w3.org/2000/svg" xmlns:xlink="http://www.w3.org/1999/xlink">
    <title>3</title>
    <g id="Layouts" stroke="none" stroke-width="1" fill="none" fill-rule="evenodd">
        <g id="Rewards" transform="translate(-345.000000, -311.000000)" fill="#1CCF25" fill-rule="nonzero">
            <path d="M356.799223,316 L356.799223,311 L351.799223,311 L351.799223,316 L356.799223,316 Z M380.799223,316 L380.799223,311 L375.799223,311 L375.799223,316 L380.799223,316 Z M374.799223,316 L374.799223,311 L369.799223,311 L369.799223,316 L374.799223,316 Z M368.799223,316 L368.799223,311 L363.799223,311 L363.799223,316 L368.799223,316 Z M362.799223,316 L362.799223,311 L357.799223,311 L357.799223,316 L362.799223,316 Z M350.799223,322 L350.799223,317 L345.799223,317 L345.799223,322 L350.799223,322 Z M386.799223,322 L386.799223,317 L381.799223,317 L381.799223,322 L386.799223,322 Z M380.799223,322 L380.799223,317 L375.799223,317 L375.799223,322 L380.799223,322 Z M356.799223,322 L356.799223,317 L351.799223,317 L351.799223,322 L356.799223,322 Z M386.799223,328 L386.799223,323 L381.799223,323 L381.799223,328 L386.799223,328 Z M380.799223,328 L380.799223,323 L375.799223,323 L375.799223,328 L380.799223,328 Z M362.799223,334 L362.799223,329 L357.799223,329 L357.799223,334 L362.799223,334 Z M380.799223,334 L380.799223,329 L375.799223,329 L375.799223,334 L380.799223,334 Z M374.799223,334 L374.799223,329 L369.799223,329 L369.799223,334 L374.799223,334 Z M368.799223,334 L368.799223,329 L363.799223,329 L363.799223,334 L368.799223,334 Z M386.799223,340 L386.799223,335 L381.799223,335 L381.799223,340 L386.799223,340 Z M380.799223,340 L380.799223,335 L375.799223,335 L375.799223,340 L380.799223,340 Z M350.799223,346 L350.799223,341 L345.799223,341 L345.799223,346 L350.799223,346 Z M386.799223,346 L386.799223,341 L381.799223,341 L381.799223,346 L386.799223,346 Z M380.799223,346 L380.799223,341 L375.799223,341 L375.799223,346 L380.799223,346 Z M356.799223,346 L356.799223,341 L351.799223,341 L351.799223,346 L356.799223,346 Z M356.799223,352 L356.799223,347 L351.799223,347 L351.799223,352 L356.799223,352 Z M380.799223,352 L380.799223,347 L375.799223,347 L375.799223,352 L380.799223,352 Z M374.799223,352 L374.799223,347 L369.799223,347 L369.799223,352 L374.799223,352 Z M368.799223,352 L368.799223,347 L363.799223,347 L363.799223,352 L368.799223,352 Z M362.799223,352 L362.799223,347 L357.799223,347 L357.799223,352 L362.799223,352 Z" id="3"></path>
        </g>
    </g>
</svg>