<?xml version="1.0" encoding="UTF-8"?>
<svg width="42px" height="41px" viewBox="0 0 42 41" version="1.1" xmlns="http://www.w3.org/2000/svg" xmlns:xlink="http://www.w3.org/1999/xlink">
    <title>4</title>
    <g id="Layouts" stroke="none" stroke-width="1" fill="none" fill-rule="evenodd">
        <g id="Rewards" transform="translate(-345.000000, -313.000000)" fill="#1CCF25" fill-rule="nonzero">
            <path d="M368.799223,318 L368.799223,313 L363.799223,313 L363.799223,318 L368.799223,318 Z M380.799223,318 L380.799223,313 L375.799223,313 L375.799223,318 L380.799223,318 Z M374.799223,318 L374.799223,313 L369.799223,313 L369.799223,318 L374.799223,318 Z M362.799223,324 L362.799223,319 L357.799223,319 L357.799223,324 L362.799223,324 Z M380.799223,324 L380.799223,319 L375.799223,319 L375.799223,324 L380.799223,324 Z M374.799223,324 L374.799223,319 L369.799223,319 L369.799223,324 L374.799223,324 Z M368.799223,324 L368.799223,319 L363.799223,319 L363.799223,324 L368.799223,324 Z M356.799223,330 L356.799223,325 L351.799223,325 L351.799223,330 L356.799223,330 Z M380.799223,330 L380.799223,325 L375.799223,325 L375.799223,330 L380.799223,330 Z M374.799223,330 L374.799223,325 L369.799223,325 L369.799223,330 L374.799223,330 Z M362.799223,330 L362.799223,325 L357.799223,325 L357.799223,330 L362.799223,330 Z M350.799223,336 L350.799223,331 L345.799223,331 L345.799223,336 L350.799223,336 Z M380.799223,336 L380.799223,331 L375.799223,331 L375.799223,336 L380.799223,336 Z M374.799223,336 L374.799223,331 L369.799223,331 L369.799223,336 L374.799223,336 Z M356.799223,336 L356.799223,331 L351.799223,331 L351.799223,336 L356.799223,336 Z M350.799223,342 L350.799223,337 L345.799223,337 L345.799223,342 L350.799223,342 Z M380.799223,342 L380.799223,337 L375.799223,337 L375.799223,342 L380.799223,342 Z M386.799223,342 L386.799223,337 L381.799223,337 L381.799223,342 L386.799223,342 Z M374.799223,342 L374.799223,337 L369.799223,337 L369.799223,342 L374.799223,342 Z M368.799223,342 L368.799223,337 L363.799223,337 L363.799223,342 L368.799223,342 Z M362.799223,342 L362.799223,337 L357.799223,337 L357.799223,342 L362.799223,342 Z M356.799223,342 L356.799223,337 L351.799223,337 L351.799223,342 L356.799223,342 Z M380.799223,348 L380.799223,343 L375.799223,343 L375.799223,348 L380.799223,348 Z M374.799223,348 L374.799223,343 L369.799223,343 L369.799223,348 L374.799223,348 Z M380.799223,354 L380.799223,349 L375.799223,349 L375.799223,354 L380.799223,354 Z M374.799223,354 L374.799223,349 L369.799223,349 L369.799223,354 L374.799223,354 Z" id="4"></path>
        </g>
    </g>
</svg>