<?xml version="1.0" encoding="UTF-8"?>
<svg width="42px" height="41px" viewBox="0 0 42 41" version="1.1" xmlns="http://www.w3.org/2000/svg" xmlns:xlink="http://www.w3.org/1999/xlink">
    <title>5</title>
    <g id="Layouts" stroke="none" stroke-width="1" fill="none" fill-rule="evenodd">
        <g id="Rewards" transform="translate(-345.000000, -313.000000)" fill="#1CCF25" fill-rule="nonzero">
            <path d="M386.799223,318 L386.799223,313 L381.799223,313 L381.799223,318 L386.799223,318 Z M350.799223,318 L350.799223,313 L345.799223,313 L345.799223,318 L350.799223,318 Z M380.799223,318 L380.799223,313 L375.799223,313 L375.799223,318 L380.799223,318 Z M374.799223,318 L374.799223,313 L369.799223,313 L369.799223,318 L374.799223,318 Z M368.799223,318 L368.799223,313 L363.799223,313 L363.799223,318 L368.799223,318 Z M362.799223,318 L362.799223,313 L357.799223,313 L357.799223,318 L362.799223,318 Z M356.799223,318 L356.799223,313 L351.799223,313 L351.799223,318 L356.799223,318 Z M350.799223,324 L350.799223,319 L345.799223,319 L345.799223,324 L350.799223,324 Z M356.799223,324 L356.799223,319 L351.799223,319 L351.799223,324 L356.799223,324 Z M380.799223,330 L380.799223,325 L375.799223,325 L375.799223,330 L380.799223,330 Z M350.799223,330 L350.799223,325 L345.799223,325 L345.799223,330 L350.799223,330 Z M374.799223,330 L374.799223,325 L369.799223,325 L369.799223,330 L374.799223,330 Z M368.799223,330 L368.799223,325 L363.799223,325 L363.799223,330 L368.799223,330 Z M362.799223,330 L362.799223,325 L357.799223,325 L357.799223,330 L362.799223,330 Z M356.799223,330 L356.799223,325 L351.799223,325 L351.799223,330 L356.799223,330 Z M386.799223,336 L386.799223,331 L381.799223,331 L381.799223,336 L386.799223,336 Z M380.799223,336 L380.799223,331 L375.799223,331 L375.799223,336 L380.799223,336 Z M386.799223,342 L386.799223,337 L381.799223,337 L381.799223,342 L386.799223,342 Z M380.799223,342 L380.799223,337 L375.799223,337 L375.799223,342 L380.799223,342 Z M386.799223,348 L386.799223,343 L381.799223,343 L381.799223,348 L386.799223,348 Z M350.799223,348 L350.799223,343 L345.799223,343 L345.799223,348 L350.799223,348 Z M380.799223,348 L380.799223,343 L375.799223,343 L375.799223,348 L380.799223,348 Z M356.799223,348 L356.799223,343 L351.799223,343 L351.799223,348 L356.799223,348 Z M380.799223,354 L380.799223,349 L375.799223,349 L375.799223,354 L380.799223,354 Z M356.799223,354 L356.799223,349 L351.799223,349 L351.799223,354 L356.799223,354 Z M374.799223,354 L374.799223,349 L369.799223,349 L369.799223,354 L374.799223,354 Z M368.799223,354 L368.799223,349 L363.799223,349 L363.799223,354 L368.799223,354 Z M362.799223,354 L362.799223,349 L357.799223,349 L357.799223,354 L362.799223,354 Z" id="5"></path>
        </g>
    </g>
</svg>