<?xml version="1.0" encoding="UTF-8"?>
<svg width="42px" height="41px" viewBox="0 0 42 41" version="1.1" xmlns="http://www.w3.org/2000/svg" xmlns:xlink="http://www.w3.org/1999/xlink">
    <title>6</title>
    <g id="Layouts" stroke="none" stroke-width="1" fill="none" fill-rule="evenodd">
        <g id="Rewards" transform="translate(-345.000000, -320.000000)" fill="#1CCF25" fill-rule="nonzero">
            <path d="M380.799223,325 L380.799223,320 L375.799223,320 L375.799223,325 L380.799223,325 Z M356.799223,325 L356.799223,320 L351.799223,320 L351.799223,325 L356.799223,325 Z M374.799223,325 L374.799223,320 L369.799223,320 L369.799223,325 L374.799223,325 Z M368.799223,325 L368.799223,320 L363.799223,320 L363.799223,325 L368.799223,325 Z M362.799223,325 L362.799223,320 L357.799223,320 L357.799223,325 L362.799223,325 Z M350.799223,331 L350.799223,326 L345.799223,326 L345.799223,331 L350.799223,331 Z M356.799223,331 L356.799223,326 L351.799223,326 L351.799223,331 L356.799223,331 Z M380.799223,337 L380.799223,332 L375.799223,332 L375.799223,337 L380.799223,337 Z M350.799223,337 L350.799223,332 L345.799223,332 L345.799223,337 L350.799223,337 Z M374.799223,337 L374.799223,332 L369.799223,332 L369.799223,337 L374.799223,337 Z M368.799223,337 L368.799223,332 L363.799223,332 L363.799223,337 L368.799223,337 Z M362.799223,337 L362.799223,332 L357.799223,332 L357.799223,337 L362.799223,337 Z M356.799223,337 L356.799223,332 L351.799223,332 L351.799223,337 L356.799223,337 Z M386.799223,343 L386.799223,338 L381.799223,338 L381.799223,343 L386.799223,343 Z M350.799223,343 L350.799223,338 L345.799223,338 L345.799223,343 L350.799223,343 Z M380.799223,343 L380.799223,338 L375.799223,338 L375.799223,343 L380.799223,343 Z M356.799223,343 L356.799223,338 L351.799223,338 L351.799223,343 L356.799223,343 Z M386.799223,349 L386.799223,344 L381.799223,344 L381.799223,349 L386.799223,349 Z M350.799223,349 L350.799223,344 L345.799223,344 L345.799223,349 L350.799223,349 Z M380.799223,349 L380.799223,344 L375.799223,344 L375.799223,349 L380.799223,349 Z M356.799223,349 L356.799223,344 L351.799223,344 L351.799223,349 L356.799223,349 Z M386.799223,355 L386.799223,350 L381.799223,350 L381.799223,355 L386.799223,355 Z M350.799223,355 L350.799223,350 L345.799223,350 L345.799223,355 L350.799223,355 Z M380.799223,355 L380.799223,350 L375.799223,350 L375.799223,355 L380.799223,355 Z M356.799223,355 L356.799223,350 L351.799223,350 L351.799223,355 L356.799223,355 Z M380.799223,361 L380.799223,356 L375.799223,356 L375.799223,361 L380.799223,361 Z M356.799223,361 L356.799223,356 L351.799223,356 L351.799223,361 L356.799223,361 Z M374.799223,361 L374.799223,356 L369.799223,356 L369.799223,361 L374.799223,361 Z M368.799223,361 L368.799223,356 L363.799223,356 L363.799223,361 L368.799223,361 Z M362.799223,361 L362.799223,356 L357.799223,356 L357.799223,361 L362.799223,361 Z" id="6"></path>
        </g>
    </g>
</svg>