<?xml version="1.0" encoding="UTF-8"?>
<svg width="42px" height="41px" viewBox="0 0 42 41" version="1.1" xmlns="http://www.w3.org/2000/svg" xmlns:xlink="http://www.w3.org/1999/xlink">
    <title>9</title>
    <g id="Layouts" stroke="none" stroke-width="1" fill="none" fill-rule="evenodd">
        <g id="Rewards" transform="translate(-345.000000, -324.000000)" fill="#1CCF25" fill-rule="nonzero">
            <path d="M380.799223,329 L380.799223,324 L375.799223,324 L375.799223,329 L380.799223,329 Z M356.799223,329 L356.799223,324 L351.799223,324 L351.799223,329 L356.799223,329 Z M374.799223,329 L374.799223,324 L369.799223,324 L369.799223,329 L374.799223,329 Z M368.799223,329 L368.799223,324 L363.799223,324 L363.799223,329 L368.799223,329 Z M362.799223,329 L362.799223,324 L357.799223,324 L357.799223,329 L362.799223,329 Z M386.799223,335 L386.799223,330 L381.799223,330 L381.799223,335 L386.799223,335 Z M350.799223,335 L350.799223,330 L345.799223,330 L345.799223,335 L350.799223,335 Z M380.799223,335 L380.799223,330 L375.799223,330 L375.799223,335 L380.799223,335 Z M356.799223,335 L356.799223,330 L351.799223,330 L351.799223,335 L356.799223,335 Z M386.799223,341 L386.799223,336 L381.799223,336 L381.799223,341 L386.799223,341 Z M350.799223,341 L350.799223,336 L345.799223,336 L345.799223,341 L350.799223,341 Z M380.799223,341 L380.799223,336 L375.799223,336 L375.799223,341 L380.799223,341 Z M356.799223,341 L356.799223,336 L351.799223,336 L351.799223,341 L356.799223,341 Z M386.799223,347 L386.799223,342 L381.799223,342 L381.799223,347 L386.799223,347 Z M350.799223,347 L350.799223,342 L345.799223,342 L345.799223,347 L350.799223,347 Z M380.799223,347 L380.799223,342 L375.799223,342 L375.799223,347 L380.799223,347 Z M356.799223,347 L356.799223,342 L351.799223,342 L351.799223,347 L356.799223,347 Z M386.799223,353 L386.799223,348 L381.799223,348 L381.799223,353 L386.799223,353 Z M356.799223,353 L356.799223,348 L351.799223,348 L351.799223,353 L356.799223,353 Z M380.799223,353 L380.799223,348 L375.799223,348 L375.799223,353 L380.799223,353 Z M374.799223,353 L374.799223,348 L369.799223,348 L369.799223,353 L374.799223,353 Z M368.799223,353 L368.799223,348 L363.799223,348 L363.799223,353 L368.799223,353 Z M362.799223,353 L362.799223,348 L357.799223,348 L357.799223,353 L362.799223,353 Z M386.799223,359 L386.799223,354 L381.799223,354 L381.799223,359 L386.799223,359 Z M380.799223,359 L380.799223,354 L375.799223,354 L375.799223,359 L380.799223,359 Z M380.799223,365 L380.799223,360 L375.799223,360 L375.799223,365 L380.799223,365 Z M356.799223,365 L356.799223,360 L351.799223,360 L351.799223,365 L356.799223,365 Z M374.799223,365 L374.799223,360 L369.799223,360 L369.799223,365 L374.799223,365 Z M368.799223,365 L368.799223,360 L363.799223,360 L363.799223,365 L368.799223,365 Z M362.799223,365 L362.799223,360 L357.799223,360 L357.799223,365 L362.799223,365 Z" id="9"></path>
        </g>
    </g>
</svg>